<?xml version="1.0" encoding="UTF-8" standalone="no"?>
<!DOCTYPE svg PUBLIC "-//W3C//DTD SVG 1.1//EN" "http://www.w3.org/Graphics/SVG/1.1/DTD/svg11.dtd">
<svg width="100%" height="100%" viewBox="0 0 1929 419" version="1.1" xmlns="http://www.w3.org/2000/svg" xmlns:xlink="http://www.w3.org/1999/xlink" xml:space="preserve" xmlns:serif="http://www.serif.com/" style="fill-rule:evenodd;clip-rule:evenodd;stroke-linejoin:round;stroke-miterlimit:2;">
    <g transform="matrix(1,0,0,1,-35.580396,-718.29647)">
        <g transform="matrix(1,0,0,1,0,724.479013)">
            <g>
                <g transform="matrix(1,0,0,1,352.382898,-115)">
                    <g transform="matrix(416.666667,0,0,416.666667,-219.466231,515.520987)">
                        <path d="M0.333,-0.414L0.295,-0.41L0.347,-0.561L0.348,-0.582C0.333,-0.665 0.211,-0.707 0.139,-0.693C0.036,-0.672 -0.193,-0.541 -0.184,-0.411L-0.184,-0.403C-0.176,-0.369 -0.111,-0.321 -0.073,-0.33L-0.057,-0.347L-0.075,-0.36L-0.075,-0.363C-0.096,-0.455 0.121,-0.623 0.196,-0.638L0.213,-0.637L0.225,-0.618L0.169,-0.383L0.046,-0.345C0.021,-0.336 0.003,-0.293 0.008,-0.269L0.016,-0.261L0.02,-0.263L0.149,-0.321L0.052,-0.059L0.051,-0.052C0.059,-0.018 0.117,-0.016 0.15,-0.023L0.158,-0.028L0.278,-0.361L0.372,-0.382L0.374,-0.391L0.333,-0.414Z" style="fill-rule:nonzero;"/>
                    </g>
                    <g transform="matrix(416.666667,0,0,416.666667,-59.466231,515.520987)">
                        <path d="M0.248,-0.696C0.244,-0.727 0.182,-0.727 0.169,-0.725L0.144,-0.715C0.1,-0.672 -0.05,-0.301 -0.035,-0.222C-0.024,-0.161 0.046,-0.11 0.108,-0.121C0.172,-0.132 0.249,-0.348 0.251,-0.357L0.251,-0.367L0.226,-0.403L0.223,-0.4C0.211,-0.375 0.142,-0.231 0.083,-0.221L0.071,-0.235L0.111,-0.429C0.152,-0.475 0.26,-0.615 0.248,-0.696Z" style="fill-rule:nonzero;"/>
                    </g>
                    <g transform="matrix(416.666667,0,0,416.666667,34.700435,515.520987)">
                        <path d="M0.406,-0.458C0.387,-0.417 0.366,-0.375 0.323,-0.354L0.341,-0.512C0.332,-0.584 0.239,-0.633 0.174,-0.624C0.112,-0.616 0.053,-0.572 0.034,-0.511L0.023,-0.504C-0.021,-0.455 -0.046,-0.332 -0.035,-0.265C-0.023,-0.193 0.092,-0.149 0.15,-0.157C0.207,-0.165 0.262,-0.232 0.287,-0.275L0.289,-0.275C0.348,-0.288 0.43,-0.358 0.422,-0.429L0.406,-0.458ZM0.201,-0.572C0.234,-0.577 0.247,-0.557 0.25,-0.526C0.258,-0.467 0.228,-0.382 0.199,-0.334C0.154,-0.345 0.13,-0.385 0.123,-0.427L0.124,-0.471L0.131,-0.484L0.127,-0.492C0.136,-0.528 0.16,-0.567 0.201,-0.572ZM0.103,-0.249C0.082,-0.245 0.073,-0.269 0.071,-0.284L0.076,-0.349L0.089,-0.336L0.168,-0.289L0.103,-0.249Z" style="fill-rule:nonzero;"/>
                    </g>
                    <g transform="matrix(416.666667,0,0,416.666667,199.283769,515.520987)">
                        <path d="M0.336,-0.55C0.331,-0.624 0.237,-0.663 0.176,-0.657C0.05,-0.645 -0.03,-0.459 -0.017,-0.35C-0.006,-0.256 0.058,-0.2 0.154,-0.21C0.276,-0.222 0.356,-0.345 0.391,-0.45L0.393,-0.469L0.381,-0.495L0.375,-0.491C0.334,-0.417 0.259,-0.32 0.163,-0.31C0.124,-0.306 0.098,-0.322 0.094,-0.362C0.087,-0.427 0.148,-0.589 0.228,-0.597L0.241,-0.595L0.248,-0.583C0.251,-0.541 0.193,-0.481 0.169,-0.464L0.167,-0.46L0.218,-0.453L0.268,-0.464C0.302,-0.479 0.34,-0.506 0.336,-0.55Z" style="fill-rule:nonzero;"/>
                    </g>
                    <g transform="matrix(416.666667,0,0,416.666667,344.700435,515.520987)">
                        <path d="M0.342,-0.671C0.273,-0.668 0.113,-0.453 0.103,-0.439C0.151,-0.555 0.234,-0.692 0.309,-0.795C0.307,-0.828 0.256,-0.835 0.237,-0.834L0.19,-0.813C0.111,-0.701 -0.044,-0.324 -0.042,-0.296C-0.039,-0.262 0.008,-0.228 0.039,-0.23L0.059,-0.257L0.059,-0.263L0.135,-0.398C0.155,-0.359 0.217,-0.243 0.292,-0.247C0.37,-0.25 0.454,-0.444 0.459,-0.468L0.461,-0.484L0.445,-0.511L0.443,-0.51C0.436,-0.501 0.348,-0.36 0.3,-0.358C0.261,-0.356 0.192,-0.43 0.182,-0.448C0.216,-0.481 0.337,-0.591 0.408,-0.593L0.43,-0.59L0.433,-0.595C0.432,-0.628 0.375,-0.672 0.342,-0.671Z" style="fill-rule:nonzero;"/>
                    </g>
                    <g transform="matrix(416.666667,0,0,416.666667,511.367102,515.520987)">
                        <path d="M0.449,-0.517C0.425,-0.478 0.399,-0.44 0.354,-0.424L0.391,-0.579C0.391,-0.651 0.305,-0.711 0.239,-0.71C0.177,-0.71 0.113,-0.674 0.087,-0.616L0.075,-0.61C0.025,-0.567 -0.014,-0.447 -0.012,-0.38C-0.009,-0.307 0.099,-0.249 0.157,-0.25C0.215,-0.251 0.277,-0.311 0.308,-0.35L0.31,-0.35C0.37,-0.355 0.46,-0.415 0.461,-0.486L0.449,-0.517ZM0.26,-0.656C0.293,-0.656 0.303,-0.634 0.303,-0.604C0.303,-0.544 0.263,-0.464 0.228,-0.419C0.185,-0.436 0.166,-0.478 0.165,-0.521L0.17,-0.564L0.18,-0.577L0.176,-0.586C0.19,-0.619 0.218,-0.655 0.26,-0.656ZM0.123,-0.347C0.102,-0.346 0.096,-0.371 0.095,-0.386L0.108,-0.449L0.12,-0.436L0.192,-0.379L0.123,-0.347Z" style="fill-rule:nonzero;"/>
                    </g>
                    <g transform="matrix(416.666667,0,0,416.666667,675.950435,515.520987)">
                        <path d="M0.751,-0.483C0.741,-0.471 0.633,-0.347 0.583,-0.35L0.573,-0.364C0.576,-0.412 0.695,-0.557 0.704,-0.568L0.707,-0.575C0.71,-0.611 0.64,-0.652 0.617,-0.654C0.562,-0.657 0.473,-0.573 0.445,-0.546L0.496,-0.61L0.498,-0.617C0.501,-0.653 0.43,-0.693 0.406,-0.694C0.319,-0.698 0.166,-0.501 0.142,-0.471L0.247,-0.644C0.248,-0.678 0.186,-0.706 0.163,-0.707L0.144,-0.692L-0.033,-0.329C-0.034,-0.281 0.019,-0.256 0.057,-0.256L0.081,-0.275L0.08,-0.28C0.081,-0.364 0.346,-0.622 0.36,-0.622L0.361,-0.621C0.357,-0.536 0.242,-0.483 0.239,-0.398C0.238,-0.367 0.283,-0.325 0.314,-0.324L0.343,-0.353L0.336,-0.358C0.34,-0.432 0.556,-0.591 0.581,-0.592L0.582,-0.591C0.576,-0.508 0.461,-0.46 0.457,-0.377C0.453,-0.312 0.52,-0.242 0.583,-0.238C0.67,-0.232 0.717,-0.354 0.758,-0.431L0.764,-0.454L0.756,-0.485L0.751,-0.483Z" style="fill-rule:nonzero;"/>
                    </g>
                    <g transform="matrix(416.666667,0,0,416.666667,952.200435,515.520987)">
                        <path d="M0.445,-0.444C0.392,-0.377 0.293,-0.299 0.198,-0.309C0.16,-0.312 0.135,-0.331 0.139,-0.371L0.146,-0.399L0.218,-0.377C0.287,-0.37 0.405,-0.43 0.415,-0.51C0.423,-0.583 0.339,-0.64 0.278,-0.646C0.152,-0.659 0.035,-0.493 0.027,-0.383C0.019,-0.289 0.073,-0.219 0.169,-0.21C0.29,-0.198 0.398,-0.301 0.452,-0.398L0.459,-0.421L0.453,-0.447L0.445,-0.444ZM0.33,-0.572L0.334,-0.559C0.326,-0.49 0.213,-0.443 0.162,-0.438C0.177,-0.465 0.26,-0.583 0.318,-0.577L0.33,-0.572Z" style="fill-rule:nonzero;"/>
                    </g>
                    <g transform="matrix(416.666667,0,0,416.666667,1098.033769,515.520987)">
                        <path d="M0.444,-0.65L0.405,-0.659L0.451,-0.697L0.454,-0.702L0.374,-0.748L0.351,-0.745L0.279,-0.679L0.167,-0.681L0.115,-0.639L0.118,-0.628L0.229,-0.625C0.209,-0.602 0.028,-0.386 0.02,-0.316C0.012,-0.255 0.065,-0.185 0.127,-0.177C0.19,-0.169 0.329,-0.352 0.333,-0.359L0.336,-0.369L0.323,-0.411L0.319,-0.41C0.3,-0.389 0.191,-0.272 0.132,-0.28L0.126,-0.291C0.134,-0.353 0.348,-0.599 0.357,-0.609L0.477,-0.578L0.485,-0.59C0.489,-0.614 0.465,-0.644 0.444,-0.65Z" style="fill-rule:nonzero;"/>
                    </g>
                    <g transform="matrix(416.666667,0,0,416.666667,1191.367102,515.520987)">
                        <path d="M0.462,-0.352C0.404,-0.288 0.301,-0.217 0.206,-0.232C0.169,-0.238 0.145,-0.258 0.151,-0.298L0.16,-0.326L0.231,-0.299C0.299,-0.288 0.421,-0.341 0.435,-0.42C0.449,-0.492 0.368,-0.554 0.308,-0.564C0.182,-0.585 0.055,-0.426 0.039,-0.318C0.026,-0.224 0.076,-0.151 0.171,-0.136C0.292,-0.116 0.405,-0.212 0.466,-0.305L0.475,-0.328L0.47,-0.354L0.462,-0.352ZM0.355,-0.487L0.357,-0.473C0.346,-0.405 0.229,-0.366 0.178,-0.363C0.195,-0.39 0.285,-0.502 0.343,-0.492L0.355,-0.487Z" style="fill-rule:nonzero;"/>
                    </g>
                    <g transform="matrix(416.666667,0,0,416.666667,1337.200435,515.520987)">
                        <path d="M0.476,-0.462C0.358,-0.488 0.257,-0.353 0.164,-0.276L0.311,-0.44C0.318,-0.474 0.263,-0.512 0.24,-0.517L0.217,-0.506L-0.019,-0.181C-0.027,-0.134 0.021,-0.1 0.058,-0.093L0.085,-0.109L0.085,-0.113C0.105,-0.213 0.348,-0.35 0.398,-0.377L0.351,-0.285L0.349,-0.276C0.345,-0.236 0.378,-0.177 0.42,-0.168C0.454,-0.16 0.54,-0.249 0.548,-0.259L0.589,-0.316L0.588,-0.318L0.441,-0.241L0.437,-0.244L0.435,-0.259L0.545,-0.371L0.549,-0.378C0.557,-0.412 0.497,-0.457 0.476,-0.462Z" style="fill-rule:nonzero;"/>
                    </g>
                </g>
            </g>
        </g>
        <g transform="matrix(0.834632,0,0,1,395.930981,553.411242)">
            <g>
                <g transform="matrix(2.285482,2.215,-2.050978,2.116241,236.55551,-1718.66923)">
                    <path d="M604.638,411.029C602.687,412.169 586.88,422.932 568.767,444.983C556.694,459.68 548.171,474.761 546.717,480.606C546.457,481.729 546.516,482.483 546.529,482.646C546.729,485.166 548.638,487.03 550.154,486.599L550.374,486.537C551.444,481.868 559.68,465.479 574.52,448.067C587.229,433.154 599.912,423.187 608.044,418.676C608.861,418.182 609.262,417.51 609.42,416.875C610.02,414.459 606.896,411.084 605.251,410.96C605.202,410.956 604.784,410.925 604.638,411.029Z" style="fill-rule:nonzero;"/>
                </g>
            </g>
        </g>
    </g>
</svg>
